<mxfile host="Electron" agent="Mozilla/5.0 (Windows NT 10.0; Win64; x64) AppleWebKit/537.36 (KHTML, like Gecko) draw.io/26.1.1 Chrome/132.0.6834.210 Electron/34.3.3 Safari/537.36" version="26.1.1">
  <diagram name="Page-1" id="YatqnJPeq4K2QnCSBU6K">
    <mxGraphModel dx="1750" dy="2135" grid="1" gridSize="10" guides="1" tooltips="1" connect="1" arrows="1" fold="1" page="1" pageScale="1" pageWidth="850" pageHeight="1100" math="0" shadow="0">
      <root>
        <mxCell id="0" />
        <mxCell id="1" parent="0" />
        <mxCell id="Pve7AIVod7Bmp0f9Ushr-53" value="Patch Embedded Sequence" style="text;html=1;align=center;verticalAlign=middle;whiteSpace=wrap;rounded=0;fontStyle=1" parent="1" vertex="1">
          <mxGeometry x="450" y="-720" width="150" height="30" as="geometry" />
        </mxCell>
        <mxCell id="Pve7AIVod7Bmp0f9Ushr-2" value="&lt;font style=&quot;font-size: 14px;&quot;&gt;Input Image&lt;/font&gt;" style="rounded=1;whiteSpace=wrap;html=1;fontStyle=1;fillColor=#d5e8d4;strokeColor=#82b366;" parent="1" vertex="1">
          <mxGeometry x="270" y="-1050" width="140" height="40" as="geometry" />
        </mxCell>
        <mxCell id="Pve7AIVod7Bmp0f9Ushr-8" value="" style="endArrow=classic;html=1;rounded=0;exitX=0.5;exitY=1;exitDx=0;exitDy=0;entryX=0.5;entryY=0;entryDx=0;entryDy=0;fontStyle=1" parent="1" source="Pve7AIVod7Bmp0f9Ushr-2" target="Pve7AIVod7Bmp0f9Ushr-3" edge="1">
          <mxGeometry width="50" height="50" relative="1" as="geometry">
            <mxPoint x="150" y="-970" as="sourcePoint" />
            <mxPoint x="370" y="-970" as="targetPoint" />
          </mxGeometry>
        </mxCell>
        <mxCell id="Pve7AIVod7Bmp0f9Ushr-80" value="" style="endArrow=classic;html=1;rounded=0;exitX=1;exitY=0.5;exitDx=0;exitDy=0;entryX=0;entryY=0.5;entryDx=0;entryDy=0;fontStyle=1" parent="1" source="Pve7AIVod7Bmp0f9Ushr-3" target="Pve7AIVod7Bmp0f9Ushr-9" edge="1">
          <mxGeometry width="50" height="50" relative="1" as="geometry">
            <mxPoint x="490" y="-752.5" as="sourcePoint" />
            <mxPoint x="510" y="-940" as="targetPoint" />
          </mxGeometry>
        </mxCell>
        <mxCell id="Pve7AIVod7Bmp0f9Ushr-59" value="" style="endArrow=classic;html=1;rounded=0;exitX=0.5;exitY=1;exitDx=0;exitDy=0;entryX=0.5;entryY=0;entryDx=0;entryDy=0;fontStyle=1" parent="1" source="Pve7AIVod7Bmp0f9Ushr-28" target="Pve7AIVod7Bmp0f9Ushr-55" edge="1">
          <mxGeometry width="50" height="50" relative="1" as="geometry">
            <mxPoint x="210" y="-615" as="sourcePoint" />
            <mxPoint x="375" y="-230" as="targetPoint" />
          </mxGeometry>
        </mxCell>
        <mxCell id="Pve7AIVod7Bmp0f9Ushr-60" value="CLS Token" style="text;html=1;align=center;verticalAlign=middle;whiteSpace=wrap;rounded=0;fontStyle=1" parent="1" vertex="1">
          <mxGeometry x="280" y="-360" width="80" height="30" as="geometry" />
        </mxCell>
        <mxCell id="Pve7AIVod7Bmp0f9Ushr-62" value="&lt;font style=&quot;font-size: 14px;&quot;&gt;Classification Output&amp;nbsp;&lt;/font&gt;&lt;div&gt;&lt;font style=&quot;font-size: 14px;&quot;&gt;(9 Classes)&lt;/font&gt;&lt;/div&gt;" style="rounded=1;whiteSpace=wrap;html=1;fontStyle=1;fillColor=#d5e8d4;strokeColor=#82b366;" parent="1" vertex="1">
          <mxGeometry x="552.5" y="-245" width="167.5" height="60" as="geometry" />
        </mxCell>
        <mxCell id="Pve7AIVod7Bmp0f9Ushr-81" value="" style="endArrow=classic;html=1;rounded=0;entryX=0;entryY=0.5;entryDx=0;entryDy=0;exitX=1;exitY=0.5;exitDx=0;exitDy=0;fontStyle=1" parent="1" source="Pve7AIVod7Bmp0f9Ushr-55" target="Pve7AIVod7Bmp0f9Ushr-62" edge="1">
          <mxGeometry width="50" height="50" relative="1" as="geometry">
            <mxPoint x="200" y="-290" as="sourcePoint" />
            <mxPoint x="580" y="-250" as="targetPoint" />
          </mxGeometry>
        </mxCell>
        <mxCell id="Pve7AIVod7Bmp0f9Ushr-116" value="" style="endArrow=classic;html=1;rounded=0;entryX=0.5;entryY=0;entryDx=0;entryDy=0;exitX=0.5;exitY=1;exitDx=0;exitDy=0;fontStyle=1" parent="1" source="Pve7AIVod7Bmp0f9Ushr-9" target="Pve7AIVod7Bmp0f9Ushr-23" edge="1">
          <mxGeometry width="50" height="50" relative="1" as="geometry">
            <mxPoint x="640" y="-730" as="sourcePoint" />
            <mxPoint x="530" y="-780" as="targetPoint" />
          </mxGeometry>
        </mxCell>
        <mxCell id="Pve7AIVod7Bmp0f9Ushr-52" value="Feature Map" style="text;html=1;align=center;verticalAlign=middle;whiteSpace=wrap;rounded=0;fontStyle=1" parent="1" vertex="1">
          <mxGeometry x="630" y="-730" width="60" height="30" as="geometry" />
        </mxCell>
        <mxCell id="Pve7AIVod7Bmp0f9Ushr-128" value="" style="group" parent="1" vertex="1" connectable="0">
          <mxGeometry x="530" y="-1050" width="200" height="310" as="geometry" />
        </mxCell>
        <mxCell id="Pve7AIVod7Bmp0f9Ushr-9" value="" style="rounded=1;whiteSpace=wrap;html=1;fontStyle=1;fillColor=#e1d5e7;strokeColor=#9673a6;" parent="Pve7AIVod7Bmp0f9Ushr-128" vertex="1">
          <mxGeometry width="200" height="310" as="geometry" />
        </mxCell>
        <mxCell id="Pve7AIVod7Bmp0f9Ushr-5" value="4 Increasing convolutional layers" style="rounded=1;whiteSpace=wrap;html=1;fontStyle=1;fillColor=#f5f5f5;fontColor=#333333;strokeColor=#666666;" parent="Pve7AIVod7Bmp0f9Ushr-128" vertex="1">
          <mxGeometry x="37.5" y="52.46153846153845" width="125" height="38.153846153846146" as="geometry" />
        </mxCell>
        <mxCell id="Pve7AIVod7Bmp0f9Ushr-19" value="&lt;font style=&quot;font-size: 14px;&quot;&gt;CNN Feature Extractor&lt;/font&gt;" style="text;html=1;align=center;verticalAlign=middle;whiteSpace=wrap;rounded=0;fontStyle=1" parent="Pve7AIVod7Bmp0f9Ushr-128" vertex="1">
          <mxGeometry x="21.880000000000003" y="10" width="156.25" height="28.62" as="geometry" />
        </mxCell>
        <mxCell id="Pve7AIVod7Bmp0f9Ushr-79" value="" style="endArrow=classic;html=1;rounded=0;exitX=0.5;exitY=1;exitDx=0;exitDy=0;entryX=0.636;entryY=-0.007;entryDx=0;entryDy=0;entryPerimeter=0;fontStyle=1" parent="Pve7AIVod7Bmp0f9Ushr-128" source="Pve7AIVod7Bmp0f9Ushr-5" target="Pve7AIVod7Bmp0f9Ushr-70" edge="1">
          <mxGeometry width="50" height="50" relative="1" as="geometry">
            <mxPoint x="-90" y="267.0769230769231" as="sourcePoint" />
            <mxPoint x="-40" y="219.38461538461536" as="targetPoint" />
          </mxGeometry>
        </mxCell>
        <mxCell id="Pve7AIVod7Bmp0f9Ushr-101" value="" style="group;fontStyle=1" parent="Pve7AIVod7Bmp0f9Ushr-128" vertex="1" connectable="0">
          <mxGeometry x="20" y="114.46" width="160" height="181.23" as="geometry" />
        </mxCell>
        <mxCell id="Pve7AIVod7Bmp0f9Ushr-70" value="" style="rounded=1;whiteSpace=wrap;html=1;fontStyle=1;fillColor=#f5f5f5;fontColor=#333333;strokeColor=#666666;" parent="Pve7AIVod7Bmp0f9Ushr-101" vertex="1">
          <mxGeometry width="125.71428571428571" height="152.61473684210523" as="geometry" />
        </mxCell>
        <mxCell id="Pve7AIVod7Bmp0f9Ushr-71" value="" style="rounded=1;whiteSpace=wrap;html=1;fontStyle=1;fillColor=#f5f5f5;fontColor=#333333;strokeColor=#666666;" parent="Pve7AIVod7Bmp0f9Ushr-101" vertex="1">
          <mxGeometry x="11.428571428571427" y="9.538421052631577" width="125.71428571428571" height="152.61473684210523" as="geometry" />
        </mxCell>
        <mxCell id="Pve7AIVod7Bmp0f9Ushr-72" value="" style="rounded=1;whiteSpace=wrap;html=1;fontStyle=1;fillColor=#f5f5f5;fontColor=#333333;strokeColor=#666666;" parent="Pve7AIVod7Bmp0f9Ushr-101" vertex="1">
          <mxGeometry x="22.857142857142854" y="19.076842105263154" width="125.71428571428571" height="152.61473684210523" as="geometry" />
        </mxCell>
        <mxCell id="Pve7AIVod7Bmp0f9Ushr-73" value="" style="rounded=1;whiteSpace=wrap;html=1;fontStyle=1;fillColor=#f5f5f5;fontColor=#333333;strokeColor=#666666;" parent="Pve7AIVod7Bmp0f9Ushr-101" vertex="1">
          <mxGeometry x="34.28571428571428" y="28.615263157894734" width="125.71428571428571" height="152.61473684210523" as="geometry" />
        </mxCell>
        <mxCell id="Pve7AIVod7Bmp0f9Ushr-74" value="&lt;font style=&quot;font-size: 11px;&quot;&gt;Conv2D Layer&amp;nbsp;&lt;/font&gt;" style="rounded=1;whiteSpace=wrap;html=1;fontStyle=1;" parent="Pve7AIVod7Bmp0f9Ushr-101" vertex="1">
          <mxGeometry x="45.71428571428571" y="42.9228947368421" width="102.85714285714286" height="28.615263157894734" as="geometry" />
        </mxCell>
        <mxCell id="Pve7AIVod7Bmp0f9Ushr-75" value="&lt;font style=&quot;font-size: 11px;&quot;&gt;Batch Normalization&lt;/font&gt;" style="rounded=1;whiteSpace=wrap;html=1;fontStyle=1;" parent="Pve7AIVod7Bmp0f9Ushr-101" vertex="1">
          <mxGeometry x="45.71428571428571" y="76.30736842105262" width="102.85714285714286" height="28.615263157894734" as="geometry" />
        </mxCell>
        <mxCell id="Pve7AIVod7Bmp0f9Ushr-76" value="&lt;font style=&quot;font-size: 11px;&quot;&gt;Max Pooling Layer&lt;/font&gt;" style="rounded=1;whiteSpace=wrap;html=1;fontStyle=1;" parent="Pve7AIVod7Bmp0f9Ushr-101" vertex="1">
          <mxGeometry x="45.71428571428571" y="143.07631578947368" width="102.85714285714286" height="28.615263157894734" as="geometry" />
        </mxCell>
        <mxCell id="Pve7AIVod7Bmp0f9Ushr-77" value="ReLU activation" style="rounded=1;whiteSpace=wrap;html=1;fontStyle=1;" parent="Pve7AIVod7Bmp0f9Ushr-101" vertex="1">
          <mxGeometry x="45.71428571428571" y="109.69184210526316" width="102.85714285714286" height="28.615263157894734" as="geometry" />
        </mxCell>
        <mxCell id="Pve7AIVod7Bmp0f9Ushr-129" value="" style="group" parent="1" vertex="1" connectable="0">
          <mxGeometry x="270" y="-750" width="190" height="345" as="geometry" />
        </mxCell>
        <mxCell id="Pve7AIVod7Bmp0f9Ushr-28" value="" style="rounded=1;whiteSpace=wrap;html=1;fontStyle=1;container=0;fillColor=#e1d5e7;strokeColor=#9673a6;" parent="Pve7AIVod7Bmp0f9Ushr-129" vertex="1">
          <mxGeometry width="190" height="345" as="geometry" />
        </mxCell>
        <mxCell id="Pve7AIVod7Bmp0f9Ushr-29" value="&lt;font style=&quot;font-size: 14px;&quot;&gt;Transformer Encoder&lt;/font&gt;" style="text;html=1;align=center;verticalAlign=middle;whiteSpace=wrap;rounded=0;fontStyle=1;container=0;" parent="Pve7AIVod7Bmp0f9Ushr-129" vertex="1">
          <mxGeometry x="35" y="10" width="125" height="30" as="geometry" />
        </mxCell>
        <mxCell id="Pve7AIVod7Bmp0f9Ushr-30" value="Add CLS Token" style="rounded=1;whiteSpace=wrap;html=1;fontStyle=1;container=0;fillColor=#f5f5f5;fontColor=#333333;strokeColor=#666666;" parent="Pve7AIVod7Bmp0f9Ushr-129" vertex="1">
          <mxGeometry x="20" y="50" width="150" height="30" as="geometry" />
        </mxCell>
        <mxCell id="Pve7AIVod7Bmp0f9Ushr-98" style="edgeStyle=orthogonalEdgeStyle;rounded=0;orthogonalLoop=1;jettySize=auto;html=1;exitX=0.5;exitY=1;exitDx=0;exitDy=0;entryX=0.5;entryY=0;entryDx=0;entryDy=0;fontStyle=1" parent="Pve7AIVod7Bmp0f9Ushr-129" source="Pve7AIVod7Bmp0f9Ushr-33" target="Pve7AIVod7Bmp0f9Ushr-41" edge="1">
          <mxGeometry relative="1" as="geometry" />
        </mxCell>
        <mxCell id="Pve7AIVod7Bmp0f9Ushr-33" value="Positional Embedding" style="rounded=1;whiteSpace=wrap;html=1;fontStyle=1;container=0;fillColor=#f5f5f5;fontColor=#333333;strokeColor=#666666;" parent="Pve7AIVod7Bmp0f9Ushr-129" vertex="1">
          <mxGeometry x="20" y="100" width="150" height="30" as="geometry" />
        </mxCell>
        <mxCell id="Pve7AIVod7Bmp0f9Ushr-41" value="" style="rounded=1;whiteSpace=wrap;html=1;fontStyle=1;container=0;fillColor=#f5f5f5;strokeColor=#666666;fontColor=#333333;" parent="Pve7AIVod7Bmp0f9Ushr-129" vertex="1">
          <mxGeometry x="21.25" y="150" width="147.5" height="180" as="geometry" />
        </mxCell>
        <mxCell id="Pve7AIVod7Bmp0f9Ushr-42" value="6 Transformer Layers" style="text;html=1;align=center;verticalAlign=middle;whiteSpace=wrap;rounded=0;fontStyle=1;container=0;" parent="Pve7AIVod7Bmp0f9Ushr-129" vertex="1">
          <mxGeometry x="55" y="155" width="85" height="30" as="geometry" />
        </mxCell>
        <mxCell id="Pve7AIVod7Bmp0f9Ushr-47" value="" style="endArrow=classic;html=1;rounded=0;exitX=0.5;exitY=1;exitDx=0;exitDy=0;entryX=0.5;entryY=0;entryDx=0;entryDy=0;fontStyle=1" parent="Pve7AIVod7Bmp0f9Ushr-129" source="Pve7AIVod7Bmp0f9Ushr-30" target="Pve7AIVod7Bmp0f9Ushr-33" edge="1">
          <mxGeometry width="50" height="50" relative="1" as="geometry">
            <mxPoint x="270" y="230" as="sourcePoint" />
            <mxPoint x="320" y="180" as="targetPoint" />
          </mxGeometry>
        </mxCell>
        <mxCell id="Pve7AIVod7Bmp0f9Ushr-35" value="" style="rounded=1;whiteSpace=wrap;html=1;fontStyle=1;container=0;" parent="Pve7AIVod7Bmp0f9Ushr-129" vertex="1">
          <mxGeometry x="45" y="199" width="50" height="60" as="geometry" />
        </mxCell>
        <mxCell id="Pve7AIVod7Bmp0f9Ushr-36" value="" style="rounded=1;whiteSpace=wrap;html=1;fontStyle=1;container=0;" parent="Pve7AIVod7Bmp0f9Ushr-129" vertex="1">
          <mxGeometry x="55" y="210" width="50" height="57" as="geometry" />
        </mxCell>
        <mxCell id="Pve7AIVod7Bmp0f9Ushr-38" value="" style="rounded=1;whiteSpace=wrap;html=1;fontStyle=1;container=0;" parent="Pve7AIVod7Bmp0f9Ushr-129" vertex="1">
          <mxGeometry x="65" y="220" width="50" height="60" as="geometry" />
        </mxCell>
        <mxCell id="Pve7AIVod7Bmp0f9Ushr-39" value="" style="rounded=1;whiteSpace=wrap;html=1;fontStyle=1;container=0;" parent="Pve7AIVod7Bmp0f9Ushr-129" vertex="1">
          <mxGeometry x="75" y="230" width="50" height="60" as="geometry" />
        </mxCell>
        <mxCell id="Pve7AIVod7Bmp0f9Ushr-40" value="" style="rounded=1;whiteSpace=wrap;html=1;fontStyle=1;container=0;" parent="Pve7AIVod7Bmp0f9Ushr-129" vertex="1">
          <mxGeometry x="85" y="240" width="50" height="60" as="geometry" />
        </mxCell>
        <mxCell id="Pve7AIVod7Bmp0f9Ushr-43" value="" style="rounded=1;whiteSpace=wrap;html=1;fontStyle=1;container=0;" parent="Pve7AIVod7Bmp0f9Ushr-129" vertex="1">
          <mxGeometry x="95" y="250" width="50" height="60" as="geometry" />
        </mxCell>
        <mxCell id="Pve7AIVod7Bmp0f9Ushr-130" value="" style="group" parent="1" vertex="1" connectable="0">
          <mxGeometry x="550" y="-680" width="170" height="180" as="geometry" />
        </mxCell>
        <mxCell id="Pve7AIVod7Bmp0f9Ushr-23" value="" style="rounded=1;whiteSpace=wrap;html=1;fontStyle=1;container=0;fillColor=#fff2cc;strokeColor=#d6b656;" parent="Pve7AIVod7Bmp0f9Ushr-130" vertex="1">
          <mxGeometry width="158.66666666666669" height="180" as="geometry" />
        </mxCell>
        <mxCell id="Pve7AIVod7Bmp0f9Ushr-24" value="2D convolution" style="rounded=1;whiteSpace=wrap;html=1;fontStyle=1;container=0;fillColor=#f5f5f5;fontColor=#333333;strokeColor=#666666;" parent="Pve7AIVod7Bmp0f9Ushr-130" vertex="1">
          <mxGeometry x="17" y="60" width="124.66666666666666" height="40" as="geometry" />
        </mxCell>
        <mxCell id="Pve7AIVod7Bmp0f9Ushr-25" value="Flatten + Linear Layer" style="rounded=1;whiteSpace=wrap;html=1;fontStyle=1;container=0;fillColor=#f5f5f5;fontColor=#333333;strokeColor=#666666;" parent="Pve7AIVod7Bmp0f9Ushr-130" vertex="1">
          <mxGeometry x="17" y="120" width="124.66666666666666" height="40" as="geometry" />
        </mxCell>
        <mxCell id="Pve7AIVod7Bmp0f9Ushr-27" value="&lt;font style=&quot;font-size: 14px;&quot;&gt;Patch&amp;nbsp;&lt;/font&gt;&lt;div&gt;&lt;font style=&quot;font-size: 14px;&quot;&gt;Embedding Block&lt;/font&gt;&lt;/div&gt;" style="text;html=1;align=center;verticalAlign=middle;whiteSpace=wrap;rounded=0;fontStyle=1;container=0;" parent="Pve7AIVod7Bmp0f9Ushr-130" vertex="1">
          <mxGeometry x="2.833333333333333" y="10" width="153" height="30" as="geometry" />
        </mxCell>
        <mxCell id="Pve7AIVod7Bmp0f9Ushr-45" value="" style="endArrow=classic;html=1;rounded=0;exitX=0.5;exitY=1;exitDx=0;exitDy=0;entryX=0.5;entryY=0;entryDx=0;entryDy=0;fontStyle=1" parent="Pve7AIVod7Bmp0f9Ushr-130" source="Pve7AIVod7Bmp0f9Ushr-24" target="Pve7AIVod7Bmp0f9Ushr-25" edge="1">
          <mxGeometry width="50" height="50" relative="1" as="geometry">
            <mxPoint x="34" y="35" as="sourcePoint" />
            <mxPoint x="34" y="55" as="targetPoint" />
          </mxGeometry>
        </mxCell>
        <mxCell id="Pve7AIVod7Bmp0f9Ushr-3" value="" style="rounded=1;whiteSpace=wrap;html=1;fontStyle=1;fillColor=#dae8fc;strokeColor=#6c8ebf;container=0;" parent="1" vertex="1">
          <mxGeometry x="270" y="-980" width="140" height="170" as="geometry" />
        </mxCell>
        <mxCell id="Pve7AIVod7Bmp0f9Ushr-6" value="Augmentations" style="rounded=1;whiteSpace=wrap;html=1;fontStyle=1;container=0;fillColor=#f5f5f5;fontColor=#333333;strokeColor=#666666;" parent="1" vertex="1">
          <mxGeometry x="286.25" y="-870" width="110" height="40" as="geometry" />
        </mxCell>
        <mxCell id="Pve7AIVod7Bmp0f9Ushr-7" value="&lt;font style=&quot;font-size: 14px;&quot;&gt;Data Preprocessing&lt;/font&gt;" style="text;html=1;align=center;verticalAlign=middle;whiteSpace=wrap;rounded=0;fontStyle=1;container=0;" parent="1" vertex="1">
          <mxGeometry x="300.63" y="-970" width="78.75" height="30" as="geometry" />
        </mxCell>
        <mxCell id="Pve7AIVod7Bmp0f9Ushr-78" value="Image Rescaling" style="rounded=1;whiteSpace=wrap;html=1;fontStyle=1;container=0;fillColor=#f5f5f5;fontColor=#333333;strokeColor=#666666;" parent="1" vertex="1">
          <mxGeometry x="286.25" y="-925" width="110" height="40" as="geometry" />
        </mxCell>
        <mxCell id="Pve7AIVod7Bmp0f9Ushr-131" value="" style="group" parent="1" vertex="1" connectable="0">
          <mxGeometry x="540" y="-460" width="200" height="170" as="geometry" />
        </mxCell>
        <mxCell id="Pve7AIVod7Bmp0f9Ushr-86" value="" style="rounded=1;whiteSpace=wrap;html=1;fontStyle=1;container=0;fillColor=#dae8fc;strokeColor=#6c8ebf;" parent="Pve7AIVod7Bmp0f9Ushr-131" vertex="1">
          <mxGeometry width="190" height="170" as="geometry" />
        </mxCell>
        <mxCell id="Pve7AIVod7Bmp0f9Ushr-82" value="Grad-CAM ++&lt;div&gt;(Local Feature Analysis&lt;span style=&quot;background-color: transparent; color: light-dark(rgb(0, 0, 0), rgb(255, 255, 255));&quot;&gt;)&lt;/span&gt;&lt;/div&gt;" style="rounded=1;whiteSpace=wrap;html=1;fontStyle=1;container=0;fillColor=#f5f5f5;fontColor=#333333;strokeColor=#666666;" parent="Pve7AIVod7Bmp0f9Ushr-131" vertex="1">
          <mxGeometry x="20" y="48.710000000000036" width="151.48" height="41.29" as="geometry" />
        </mxCell>
        <mxCell id="Pve7AIVod7Bmp0f9Ushr-87" value="&lt;font style=&quot;font-size: 14px;&quot;&gt;Explainability&amp;nbsp; Tools&lt;/font&gt;" style="text;html=1;align=center;verticalAlign=middle;whiteSpace=wrap;rounded=0;fontStyle=1;container=0;" parent="Pve7AIVod7Bmp0f9Ushr-131" vertex="1">
          <mxGeometry x="18.6" y="10" width="152.81" height="25.16" as="geometry" />
        </mxCell>
        <mxCell id="Pve7AIVod7Bmp0f9Ushr-121" value="Attention Heatmap&lt;div&gt;(Global Feature Analysis)&lt;/div&gt;" style="rounded=1;whiteSpace=wrap;html=1;fontStyle=1;container=0;fillColor=#f5f5f5;fontColor=#333333;strokeColor=#666666;" parent="Pve7AIVod7Bmp0f9Ushr-131" vertex="1">
          <mxGeometry x="20" y="109" width="151.48" height="41.29" as="geometry" />
        </mxCell>
        <mxCell id="Pve7AIVod7Bmp0f9Ushr-132" value="" style="group" parent="1" vertex="1" connectable="0">
          <mxGeometry x="270" y="-290" width="190" height="150" as="geometry" />
        </mxCell>
        <mxCell id="Pve7AIVod7Bmp0f9Ushr-55" value="" style="rounded=1;whiteSpace=wrap;html=1;fontStyle=1;container=0;fillColor=#fff2cc;strokeColor=#d6b656;" parent="Pve7AIVod7Bmp0f9Ushr-132" vertex="1">
          <mxGeometry width="190" height="150" as="geometry" />
        </mxCell>
        <mxCell id="Pve7AIVod7Bmp0f9Ushr-56" value="&lt;font style=&quot;font-size: 14px;&quot;&gt;Classification Head&lt;/font&gt;" style="text;html=1;align=center;verticalAlign=middle;whiteSpace=wrap;rounded=0;fontStyle=1;container=0;" parent="Pve7AIVod7Bmp0f9Ushr-132" vertex="1">
          <mxGeometry x="26.71875" y="10.714285714285722" width="136.5625" height="32.14285714285714" as="geometry" />
        </mxCell>
        <mxCell id="Pve7AIVod7Bmp0f9Ushr-57" value="Fully Connected Layer" style="rounded=1;whiteSpace=wrap;html=1;fontStyle=1;container=0;fillColor=#f5f5f5;fontColor=#333333;strokeColor=#666666;" parent="Pve7AIVod7Bmp0f9Ushr-132" vertex="1">
          <mxGeometry x="20.779999999999973" y="53.56999999999999" width="148.44" height="26.43" as="geometry" />
        </mxCell>
        <mxCell id="Pve7AIVod7Bmp0f9Ushr-58" value="Soft-max layer" style="rounded=1;whiteSpace=wrap;html=1;fontStyle=1;container=0;fillColor=#f5f5f5;fontColor=#333333;strokeColor=#666666;" parent="Pve7AIVod7Bmp0f9Ushr-132" vertex="1">
          <mxGeometry x="20.779999999999973" y="101.79000000000002" width="148.44" height="28.21" as="geometry" />
        </mxCell>
        <mxCell id="Pve7AIVod7Bmp0f9Ushr-61" value="" style="endArrow=classic;html=1;rounded=0;exitX=0.5;exitY=1;exitDx=0;exitDy=0;entryX=0.5;entryY=0;entryDx=0;entryDy=0;fontStyle=1" parent="Pve7AIVod7Bmp0f9Ushr-132" source="Pve7AIVod7Bmp0f9Ushr-57" target="Pve7AIVod7Bmp0f9Ushr-58" edge="1">
          <mxGeometry width="50" height="50" relative="1" as="geometry">
            <mxPoint x="267.1875" y="42.85714285714286" as="sourcePoint" />
            <mxPoint x="326.5625" y="-10.714285714285722" as="targetPoint" />
          </mxGeometry>
        </mxCell>
        <mxCell id="Pve7AIVod7Bmp0f9Ushr-123" value="" style="endArrow=classic;html=1;rounded=0;exitX=1;exitY=0.5;exitDx=0;exitDy=0;entryX=1;entryY=0.5;entryDx=0;entryDy=0;fontStyle=1" parent="1" source="Pve7AIVod7Bmp0f9Ushr-9" target="Pve7AIVod7Bmp0f9Ushr-82" edge="1">
          <mxGeometry width="50" height="50" relative="1" as="geometry">
            <mxPoint x="480" y="-560" as="sourcePoint" />
            <mxPoint x="530" y="-610" as="targetPoint" />
            <Array as="points">
              <mxPoint x="760" y="-895" />
              <mxPoint x="760" y="-391" />
            </Array>
          </mxGeometry>
        </mxCell>
        <mxCell id="Pve7AIVod7Bmp0f9Ushr-124" value="" style="endArrow=classic;html=1;rounded=0;exitX=1;exitY=0.75;exitDx=0;exitDy=0;entryX=0;entryY=0.5;entryDx=0;entryDy=0;fontStyle=1" parent="1" source="Pve7AIVod7Bmp0f9Ushr-28" target="Pve7AIVod7Bmp0f9Ushr-121" edge="1">
          <mxGeometry width="50" height="50" relative="1" as="geometry">
            <mxPoint x="480" y="-450" as="sourcePoint" />
            <mxPoint x="530" y="-500" as="targetPoint" />
            <Array as="points">
              <mxPoint x="520" y="-491" />
              <mxPoint x="520" y="-330" />
            </Array>
          </mxGeometry>
        </mxCell>
        <mxCell id="Pve7AIVod7Bmp0f9Ushr-119" value="" style="endArrow=classic;html=1;rounded=0;entryX=1;entryY=0.5;entryDx=0;entryDy=0;exitX=0;exitY=0.5;exitDx=0;exitDy=0;fontStyle=1" parent="1" source="Pve7AIVod7Bmp0f9Ushr-25" target="Pve7AIVod7Bmp0f9Ushr-30" edge="1">
          <mxGeometry width="50" height="50" relative="1" as="geometry">
            <mxPoint x="480" y="-620" as="sourcePoint" />
            <mxPoint x="530" y="-670" as="targetPoint" />
            <Array as="points">
              <mxPoint x="520" y="-540" />
              <mxPoint x="520" y="-685" />
            </Array>
          </mxGeometry>
        </mxCell>
        <mxCell id="L2VYYUvSV4OqeW0CB1kr-66" value="" style="group" parent="1" vertex="1" connectable="0">
          <mxGeometry x="960" y="-1042.5" width="849.99" height="275" as="geometry" />
        </mxCell>
        <mxCell id="L2VYYUvSV4OqeW0CB1kr-25" value="" style="group" parent="L2VYYUvSV4OqeW0CB1kr-66" vertex="1" connectable="0">
          <mxGeometry width="159.99" height="275" as="geometry" />
        </mxCell>
        <mxCell id="L2VYYUvSV4OqeW0CB1kr-3" value="" style="rounded=1;whiteSpace=wrap;html=1;fontStyle=1;fillColor=#e1d5e7;strokeColor=#9673a6;arcSize=6;" parent="L2VYYUvSV4OqeW0CB1kr-25" vertex="1">
          <mxGeometry x="5" width="150" height="275" as="geometry" />
        </mxCell>
        <mxCell id="L2VYYUvSV4OqeW0CB1kr-5" value="&lt;font style=&quot;font-size: 13px;&quot;&gt;&lt;i&gt;Convolutional&amp;nbsp;&lt;/i&gt;&lt;/font&gt;&lt;div&gt;&lt;font style=&quot;font-size: 13px;&quot;&gt;&lt;i&gt;Block 1&lt;/i&gt;&lt;/font&gt;&lt;/div&gt;" style="text;html=1;align=center;verticalAlign=middle;whiteSpace=wrap;rounded=0;fontStyle=1" parent="L2VYYUvSV4OqeW0CB1kr-25" vertex="1">
          <mxGeometry y="15" width="159.99" height="20" as="geometry" />
        </mxCell>
        <mxCell id="L2VYYUvSV4OqeW0CB1kr-16" value="&lt;font style=&quot;font-size: 11px;&quot;&gt;Conv2D Layer&amp;nbsp;&lt;/font&gt;" style="rounded=1;whiteSpace=wrap;html=1;fontStyle=1;" parent="L2VYYUvSV4OqeW0CB1kr-25" vertex="1">
          <mxGeometry x="18.56000000000006" y="55" width="121.43" height="28.62" as="geometry" />
        </mxCell>
        <mxCell id="L2VYYUvSV4OqeW0CB1kr-17" value="&lt;font style=&quot;font-size: 11px;&quot;&gt;Batch Normalization&lt;/font&gt;" style="rounded=1;whiteSpace=wrap;html=1;fontStyle=1;" parent="L2VYYUvSV4OqeW0CB1kr-25" vertex="1">
          <mxGeometry x="18.56000000000006" y="105" width="121.43" height="28.62" as="geometry" />
        </mxCell>
        <mxCell id="L2VYYUvSV4OqeW0CB1kr-18" value="ReLU activation" style="rounded=1;whiteSpace=wrap;html=1;fontStyle=1;" parent="L2VYYUvSV4OqeW0CB1kr-25" vertex="1">
          <mxGeometry x="18.56000000000006" y="155" width="121.43" height="28.62" as="geometry" />
        </mxCell>
        <mxCell id="L2VYYUvSV4OqeW0CB1kr-19" value="&lt;font style=&quot;font-size: 11px;&quot;&gt;2x2&amp;nbsp;&lt;/font&gt;&lt;span style=&quot;font-size: 11px; background-color: transparent; color: light-dark(rgb(0, 0, 0), rgb(255, 255, 255));&quot;&gt;Max Pooling&lt;/span&gt;" style="rounded=1;whiteSpace=wrap;html=1;fontStyle=1;" parent="L2VYYUvSV4OqeW0CB1kr-25" vertex="1">
          <mxGeometry x="18.56000000000006" y="205" width="121.43" height="28.62" as="geometry" />
        </mxCell>
        <mxCell id="L2VYYUvSV4OqeW0CB1kr-20" value="" style="endArrow=classic;html=1;rounded=0;exitX=0.5;exitY=1;exitDx=0;exitDy=0;entryX=0.5;entryY=0;entryDx=0;entryDy=0;" parent="L2VYYUvSV4OqeW0CB1kr-25" source="L2VYYUvSV4OqeW0CB1kr-16" target="L2VYYUvSV4OqeW0CB1kr-17" edge="1">
          <mxGeometry width="50" height="50" relative="1" as="geometry">
            <mxPoint x="9.990000000000009" y="195" as="sourcePoint" />
            <mxPoint x="59.99000000000001" y="145" as="targetPoint" />
          </mxGeometry>
        </mxCell>
        <mxCell id="L2VYYUvSV4OqeW0CB1kr-21" value="" style="endArrow=classic;html=1;rounded=0;exitX=0.5;exitY=1;exitDx=0;exitDy=0;entryX=0.5;entryY=0;entryDx=0;entryDy=0;" parent="L2VYYUvSV4OqeW0CB1kr-25" source="L2VYYUvSV4OqeW0CB1kr-17" target="L2VYYUvSV4OqeW0CB1kr-18" edge="1">
          <mxGeometry width="50" height="50" relative="1" as="geometry">
            <mxPoint x="88.99000000000001" y="94" as="sourcePoint" />
            <mxPoint x="88.99000000000001" y="115" as="targetPoint" />
          </mxGeometry>
        </mxCell>
        <mxCell id="L2VYYUvSV4OqeW0CB1kr-22" value="" style="endArrow=classic;html=1;rounded=0;exitX=0.5;exitY=1;exitDx=0;exitDy=0;entryX=0.5;entryY=0;entryDx=0;entryDy=0;" parent="L2VYYUvSV4OqeW0CB1kr-25" source="L2VYYUvSV4OqeW0CB1kr-18" target="L2VYYUvSV4OqeW0CB1kr-19" edge="1">
          <mxGeometry width="50" height="50" relative="1" as="geometry">
            <mxPoint x="88.99000000000001" y="144" as="sourcePoint" />
            <mxPoint x="88.99000000000001" y="165" as="targetPoint" />
          </mxGeometry>
        </mxCell>
        <mxCell id="L2VYYUvSV4OqeW0CB1kr-23" value="&lt;font style=&quot;font-size: 11px;&quot;&gt;&lt;u&gt;Filters: 32&lt;/u&gt;&lt;/font&gt;" style="text;html=1;align=center;verticalAlign=middle;whiteSpace=wrap;rounded=0;fontStyle=3" parent="L2VYYUvSV4OqeW0CB1kr-25" vertex="1">
          <mxGeometry x="35" y="245" width="90" height="11.38" as="geometry" />
        </mxCell>
        <mxCell id="L2VYYUvSV4OqeW0CB1kr-26" value="" style="group" parent="L2VYYUvSV4OqeW0CB1kr-66" vertex="1" connectable="0">
          <mxGeometry x="189.99" width="159.99" height="275" as="geometry" />
        </mxCell>
        <mxCell id="L2VYYUvSV4OqeW0CB1kr-27" value="" style="rounded=1;whiteSpace=wrap;html=1;fontStyle=1;fillColor=#dae8fc;strokeColor=#6c8ebf;arcSize=6;" parent="L2VYYUvSV4OqeW0CB1kr-26" vertex="1">
          <mxGeometry x="5" width="150" height="275" as="geometry" />
        </mxCell>
        <mxCell id="L2VYYUvSV4OqeW0CB1kr-28" value="&lt;font style=&quot;font-size: 13px;&quot;&gt;&lt;i&gt;Convolutional&amp;nbsp;&lt;/i&gt;&lt;/font&gt;&lt;div&gt;&lt;font style=&quot;font-size: 13px;&quot;&gt;&lt;i&gt;Block 2&lt;/i&gt;&lt;/font&gt;&lt;/div&gt;" style="text;html=1;align=center;verticalAlign=middle;whiteSpace=wrap;rounded=0;fontStyle=1" parent="L2VYYUvSV4OqeW0CB1kr-26" vertex="1">
          <mxGeometry y="15" width="159.99" height="20" as="geometry" />
        </mxCell>
        <mxCell id="L2VYYUvSV4OqeW0CB1kr-29" value="&lt;font style=&quot;font-size: 11px;&quot;&gt;Conv2D Layer&amp;nbsp;&lt;/font&gt;" style="rounded=1;whiteSpace=wrap;html=1;fontStyle=1;" parent="L2VYYUvSV4OqeW0CB1kr-26" vertex="1">
          <mxGeometry x="18.56000000000006" y="55" width="121.43" height="28.62" as="geometry" />
        </mxCell>
        <mxCell id="L2VYYUvSV4OqeW0CB1kr-30" value="&lt;font style=&quot;font-size: 11px;&quot;&gt;Batch Normalization&lt;/font&gt;" style="rounded=1;whiteSpace=wrap;html=1;fontStyle=1;" parent="L2VYYUvSV4OqeW0CB1kr-26" vertex="1">
          <mxGeometry x="18.56000000000006" y="105" width="121.43" height="28.62" as="geometry" />
        </mxCell>
        <mxCell id="L2VYYUvSV4OqeW0CB1kr-31" value="ReLU activation" style="rounded=1;whiteSpace=wrap;html=1;fontStyle=1;" parent="L2VYYUvSV4OqeW0CB1kr-26" vertex="1">
          <mxGeometry x="18.56000000000006" y="155" width="121.43" height="28.62" as="geometry" />
        </mxCell>
        <mxCell id="L2VYYUvSV4OqeW0CB1kr-32" value="&lt;font style=&quot;font-size: 11px;&quot;&gt;2x2&amp;nbsp;&lt;/font&gt;&lt;span style=&quot;font-size: 11px; background-color: transparent; color: light-dark(rgb(0, 0, 0), rgb(255, 255, 255));&quot;&gt;Max Pooling&lt;/span&gt;" style="rounded=1;whiteSpace=wrap;html=1;fontStyle=1;" parent="L2VYYUvSV4OqeW0CB1kr-26" vertex="1">
          <mxGeometry x="18.56000000000006" y="205" width="121.43" height="28.62" as="geometry" />
        </mxCell>
        <mxCell id="L2VYYUvSV4OqeW0CB1kr-33" value="" style="endArrow=classic;html=1;rounded=0;exitX=0.5;exitY=1;exitDx=0;exitDy=0;entryX=0.5;entryY=0;entryDx=0;entryDy=0;" parent="L2VYYUvSV4OqeW0CB1kr-26" source="L2VYYUvSV4OqeW0CB1kr-29" target="L2VYYUvSV4OqeW0CB1kr-30" edge="1">
          <mxGeometry width="50" height="50" relative="1" as="geometry">
            <mxPoint x="9.990000000000009" y="195" as="sourcePoint" />
            <mxPoint x="59.99000000000001" y="145" as="targetPoint" />
          </mxGeometry>
        </mxCell>
        <mxCell id="L2VYYUvSV4OqeW0CB1kr-34" value="" style="endArrow=classic;html=1;rounded=0;exitX=0.5;exitY=1;exitDx=0;exitDy=0;entryX=0.5;entryY=0;entryDx=0;entryDy=0;" parent="L2VYYUvSV4OqeW0CB1kr-26" source="L2VYYUvSV4OqeW0CB1kr-30" target="L2VYYUvSV4OqeW0CB1kr-31" edge="1">
          <mxGeometry width="50" height="50" relative="1" as="geometry">
            <mxPoint x="88.99000000000001" y="94" as="sourcePoint" />
            <mxPoint x="88.99000000000001" y="115" as="targetPoint" />
          </mxGeometry>
        </mxCell>
        <mxCell id="L2VYYUvSV4OqeW0CB1kr-35" value="" style="endArrow=classic;html=1;rounded=0;exitX=0.5;exitY=1;exitDx=0;exitDy=0;entryX=0.5;entryY=0;entryDx=0;entryDy=0;" parent="L2VYYUvSV4OqeW0CB1kr-26" source="L2VYYUvSV4OqeW0CB1kr-31" target="L2VYYUvSV4OqeW0CB1kr-32" edge="1">
          <mxGeometry width="50" height="50" relative="1" as="geometry">
            <mxPoint x="88.99000000000001" y="144" as="sourcePoint" />
            <mxPoint x="88.99000000000001" y="165" as="targetPoint" />
          </mxGeometry>
        </mxCell>
        <mxCell id="L2VYYUvSV4OqeW0CB1kr-36" value="&lt;font style=&quot;font-size: 11px;&quot;&gt;&lt;u&gt;Filters: 64&lt;/u&gt;&lt;/font&gt;" style="text;html=1;align=center;verticalAlign=middle;whiteSpace=wrap;rounded=0;fontStyle=3" parent="L2VYYUvSV4OqeW0CB1kr-26" vertex="1">
          <mxGeometry x="35" y="245" width="90" height="11.38" as="geometry" />
        </mxCell>
        <mxCell id="L2VYYUvSV4OqeW0CB1kr-37" value="" style="group" parent="L2VYYUvSV4OqeW0CB1kr-66" vertex="1" connectable="0">
          <mxGeometry x="379.99" width="159.99" height="275" as="geometry" />
        </mxCell>
        <mxCell id="L2VYYUvSV4OqeW0CB1kr-38" value="" style="rounded=1;whiteSpace=wrap;html=1;fontStyle=1;fillColor=#d5e8d4;strokeColor=#82b366;arcSize=6;" parent="L2VYYUvSV4OqeW0CB1kr-37" vertex="1">
          <mxGeometry x="5" width="150" height="275" as="geometry" />
        </mxCell>
        <mxCell id="L2VYYUvSV4OqeW0CB1kr-39" value="&lt;font style=&quot;font-size: 13px;&quot;&gt;&lt;i&gt;Convolutional&amp;nbsp;&lt;/i&gt;&lt;/font&gt;&lt;div&gt;&lt;font style=&quot;font-size: 13px;&quot;&gt;&lt;i&gt;Block 3&lt;/i&gt;&lt;/font&gt;&lt;/div&gt;" style="text;html=1;align=center;verticalAlign=middle;whiteSpace=wrap;rounded=0;fontStyle=1" parent="L2VYYUvSV4OqeW0CB1kr-37" vertex="1">
          <mxGeometry y="15" width="159.99" height="20" as="geometry" />
        </mxCell>
        <mxCell id="L2VYYUvSV4OqeW0CB1kr-40" value="&lt;font style=&quot;font-size: 11px;&quot;&gt;Conv2D Layer&amp;nbsp;&lt;/font&gt;" style="rounded=1;whiteSpace=wrap;html=1;fontStyle=1;" parent="L2VYYUvSV4OqeW0CB1kr-37" vertex="1">
          <mxGeometry x="18.56000000000006" y="55" width="121.43" height="28.62" as="geometry" />
        </mxCell>
        <mxCell id="L2VYYUvSV4OqeW0CB1kr-41" value="&lt;font style=&quot;font-size: 11px;&quot;&gt;Batch Normalization&lt;/font&gt;" style="rounded=1;whiteSpace=wrap;html=1;fontStyle=1;" parent="L2VYYUvSV4OqeW0CB1kr-37" vertex="1">
          <mxGeometry x="18.56000000000006" y="105" width="121.43" height="28.62" as="geometry" />
        </mxCell>
        <mxCell id="L2VYYUvSV4OqeW0CB1kr-42" value="ReLU activation" style="rounded=1;whiteSpace=wrap;html=1;fontStyle=1;" parent="L2VYYUvSV4OqeW0CB1kr-37" vertex="1">
          <mxGeometry x="18.56000000000006" y="155" width="121.43" height="28.62" as="geometry" />
        </mxCell>
        <mxCell id="L2VYYUvSV4OqeW0CB1kr-43" value="&lt;font style=&quot;font-size: 11px;&quot;&gt;2x2&amp;nbsp;&lt;/font&gt;&lt;span style=&quot;font-size: 11px; background-color: transparent; color: light-dark(rgb(0, 0, 0), rgb(255, 255, 255));&quot;&gt;Max Pooling&lt;/span&gt;" style="rounded=1;whiteSpace=wrap;html=1;fontStyle=1;" parent="L2VYYUvSV4OqeW0CB1kr-37" vertex="1">
          <mxGeometry x="18.56000000000006" y="205" width="121.43" height="28.62" as="geometry" />
        </mxCell>
        <mxCell id="L2VYYUvSV4OqeW0CB1kr-44" value="" style="endArrow=classic;html=1;rounded=0;exitX=0.5;exitY=1;exitDx=0;exitDy=0;entryX=0.5;entryY=0;entryDx=0;entryDy=0;" parent="L2VYYUvSV4OqeW0CB1kr-37" source="L2VYYUvSV4OqeW0CB1kr-40" target="L2VYYUvSV4OqeW0CB1kr-41" edge="1">
          <mxGeometry width="50" height="50" relative="1" as="geometry">
            <mxPoint x="9.990000000000009" y="195" as="sourcePoint" />
            <mxPoint x="59.99000000000001" y="145" as="targetPoint" />
          </mxGeometry>
        </mxCell>
        <mxCell id="L2VYYUvSV4OqeW0CB1kr-45" value="" style="endArrow=classic;html=1;rounded=0;exitX=0.5;exitY=1;exitDx=0;exitDy=0;entryX=0.5;entryY=0;entryDx=0;entryDy=0;" parent="L2VYYUvSV4OqeW0CB1kr-37" source="L2VYYUvSV4OqeW0CB1kr-41" target="L2VYYUvSV4OqeW0CB1kr-42" edge="1">
          <mxGeometry width="50" height="50" relative="1" as="geometry">
            <mxPoint x="88.99000000000001" y="94" as="sourcePoint" />
            <mxPoint x="88.99000000000001" y="115" as="targetPoint" />
          </mxGeometry>
        </mxCell>
        <mxCell id="L2VYYUvSV4OqeW0CB1kr-46" value="" style="endArrow=classic;html=1;rounded=0;exitX=0.5;exitY=1;exitDx=0;exitDy=0;entryX=0.5;entryY=0;entryDx=0;entryDy=0;" parent="L2VYYUvSV4OqeW0CB1kr-37" source="L2VYYUvSV4OqeW0CB1kr-42" target="L2VYYUvSV4OqeW0CB1kr-43" edge="1">
          <mxGeometry width="50" height="50" relative="1" as="geometry">
            <mxPoint x="88.99000000000001" y="144" as="sourcePoint" />
            <mxPoint x="88.99000000000001" y="165" as="targetPoint" />
          </mxGeometry>
        </mxCell>
        <mxCell id="L2VYYUvSV4OqeW0CB1kr-47" value="&lt;font style=&quot;font-size: 11px;&quot;&gt;&lt;u&gt;Filters: 128&lt;/u&gt;&lt;/font&gt;" style="text;html=1;align=center;verticalAlign=middle;whiteSpace=wrap;rounded=0;fontStyle=3" parent="L2VYYUvSV4OqeW0CB1kr-37" vertex="1">
          <mxGeometry x="35" y="245" width="90" height="11.38" as="geometry" />
        </mxCell>
        <mxCell id="L2VYYUvSV4OqeW0CB1kr-48" value="" style="group" parent="L2VYYUvSV4OqeW0CB1kr-66" vertex="1" connectable="0">
          <mxGeometry x="569.99" width="159.99" height="275" as="geometry" />
        </mxCell>
        <mxCell id="L2VYYUvSV4OqeW0CB1kr-49" value="" style="rounded=1;whiteSpace=wrap;html=1;fontStyle=1;fillColor=#fff2cc;strokeColor=#d6b656;arcSize=6;" parent="L2VYYUvSV4OqeW0CB1kr-48" vertex="1">
          <mxGeometry x="5" width="150" height="275" as="geometry" />
        </mxCell>
        <mxCell id="L2VYYUvSV4OqeW0CB1kr-50" value="&lt;font style=&quot;font-size: 13px;&quot;&gt;&lt;i&gt;Convolutional&amp;nbsp;&lt;/i&gt;&lt;/font&gt;&lt;div&gt;&lt;font style=&quot;font-size: 13px;&quot;&gt;&lt;i&gt;Block 4&lt;/i&gt;&lt;/font&gt;&lt;/div&gt;" style="text;html=1;align=center;verticalAlign=middle;whiteSpace=wrap;rounded=0;fontStyle=1" parent="L2VYYUvSV4OqeW0CB1kr-48" vertex="1">
          <mxGeometry y="15" width="159.99" height="20" as="geometry" />
        </mxCell>
        <mxCell id="L2VYYUvSV4OqeW0CB1kr-51" value="&lt;font style=&quot;font-size: 11px;&quot;&gt;Conv2D Layer&amp;nbsp;&lt;/font&gt;" style="rounded=1;whiteSpace=wrap;html=1;fontStyle=1;" parent="L2VYYUvSV4OqeW0CB1kr-48" vertex="1">
          <mxGeometry x="18.56000000000006" y="55" width="121.43" height="28.62" as="geometry" />
        </mxCell>
        <mxCell id="L2VYYUvSV4OqeW0CB1kr-52" value="&lt;font style=&quot;font-size: 11px;&quot;&gt;Batch Normalization&lt;/font&gt;" style="rounded=1;whiteSpace=wrap;html=1;fontStyle=1;" parent="L2VYYUvSV4OqeW0CB1kr-48" vertex="1">
          <mxGeometry x="18.56000000000006" y="105" width="121.43" height="28.62" as="geometry" />
        </mxCell>
        <mxCell id="L2VYYUvSV4OqeW0CB1kr-53" value="ReLU activation" style="rounded=1;whiteSpace=wrap;html=1;fontStyle=1;" parent="L2VYYUvSV4OqeW0CB1kr-48" vertex="1">
          <mxGeometry x="18.56000000000006" y="155" width="121.43" height="28.62" as="geometry" />
        </mxCell>
        <mxCell id="L2VYYUvSV4OqeW0CB1kr-54" value="&lt;font style=&quot;font-size: 11px;&quot;&gt;2x2&amp;nbsp;&lt;/font&gt;&lt;span style=&quot;font-size: 11px; background-color: transparent; color: light-dark(rgb(0, 0, 0), rgb(255, 255, 255));&quot;&gt;Max Pooling&lt;/span&gt;" style="rounded=1;whiteSpace=wrap;html=1;fontStyle=1;" parent="L2VYYUvSV4OqeW0CB1kr-48" vertex="1">
          <mxGeometry x="18.56000000000006" y="205" width="121.43" height="28.62" as="geometry" />
        </mxCell>
        <mxCell id="L2VYYUvSV4OqeW0CB1kr-55" value="" style="endArrow=classic;html=1;rounded=0;exitX=0.5;exitY=1;exitDx=0;exitDy=0;entryX=0.5;entryY=0;entryDx=0;entryDy=0;" parent="L2VYYUvSV4OqeW0CB1kr-48" source="L2VYYUvSV4OqeW0CB1kr-51" target="L2VYYUvSV4OqeW0CB1kr-52" edge="1">
          <mxGeometry width="50" height="50" relative="1" as="geometry">
            <mxPoint x="9.990000000000009" y="195" as="sourcePoint" />
            <mxPoint x="59.99000000000001" y="145" as="targetPoint" />
          </mxGeometry>
        </mxCell>
        <mxCell id="L2VYYUvSV4OqeW0CB1kr-56" value="" style="endArrow=classic;html=1;rounded=0;exitX=0.5;exitY=1;exitDx=0;exitDy=0;entryX=0.5;entryY=0;entryDx=0;entryDy=0;" parent="L2VYYUvSV4OqeW0CB1kr-48" source="L2VYYUvSV4OqeW0CB1kr-52" target="L2VYYUvSV4OqeW0CB1kr-53" edge="1">
          <mxGeometry width="50" height="50" relative="1" as="geometry">
            <mxPoint x="88.99000000000001" y="94" as="sourcePoint" />
            <mxPoint x="88.99000000000001" y="115" as="targetPoint" />
          </mxGeometry>
        </mxCell>
        <mxCell id="L2VYYUvSV4OqeW0CB1kr-57" value="" style="endArrow=classic;html=1;rounded=0;exitX=0.5;exitY=1;exitDx=0;exitDy=0;entryX=0.5;entryY=0;entryDx=0;entryDy=0;" parent="L2VYYUvSV4OqeW0CB1kr-48" source="L2VYYUvSV4OqeW0CB1kr-53" target="L2VYYUvSV4OqeW0CB1kr-54" edge="1">
          <mxGeometry width="50" height="50" relative="1" as="geometry">
            <mxPoint x="88.99000000000001" y="144" as="sourcePoint" />
            <mxPoint x="88.99000000000001" y="165" as="targetPoint" />
          </mxGeometry>
        </mxCell>
        <mxCell id="L2VYYUvSV4OqeW0CB1kr-58" value="&lt;font style=&quot;font-size: 11px;&quot;&gt;&lt;u&gt;Filters: 256&lt;/u&gt;&lt;/font&gt;" style="text;html=1;align=center;verticalAlign=middle;whiteSpace=wrap;rounded=0;fontStyle=3" parent="L2VYYUvSV4OqeW0CB1kr-48" vertex="1">
          <mxGeometry x="35" y="245" width="90" height="11.38" as="geometry" />
        </mxCell>
        <mxCell id="L2VYYUvSV4OqeW0CB1kr-60" value="" style="endArrow=classic;html=1;rounded=0;exitX=1;exitY=0.5;exitDx=0;exitDy=0;entryX=0;entryY=0.5;entryDx=0;entryDy=0;" parent="L2VYYUvSV4OqeW0CB1kr-66" source="L2VYYUvSV4OqeW0CB1kr-19" target="L2VYYUvSV4OqeW0CB1kr-29" edge="1">
          <mxGeometry width="50" height="50" relative="1" as="geometry">
            <mxPoint x="379.99" y="80" as="sourcePoint" />
            <mxPoint x="429.99" y="30" as="targetPoint" />
            <Array as="points">
              <mxPoint x="179.99" y="220" />
              <mxPoint x="179.99" y="70" />
            </Array>
          </mxGeometry>
        </mxCell>
        <mxCell id="L2VYYUvSV4OqeW0CB1kr-61" value="" style="endArrow=classic;html=1;rounded=0;exitX=1;exitY=0.5;exitDx=0;exitDy=0;entryX=0;entryY=0.5;entryDx=0;entryDy=0;" parent="L2VYYUvSV4OqeW0CB1kr-66" source="L2VYYUvSV4OqeW0CB1kr-32" target="L2VYYUvSV4OqeW0CB1kr-40" edge="1">
          <mxGeometry width="50" height="50" relative="1" as="geometry">
            <mxPoint x="379.99" y="80" as="sourcePoint" />
            <mxPoint x="429.99" y="30" as="targetPoint" />
            <Array as="points">
              <mxPoint x="369.99" y="220" />
              <mxPoint x="369.99" y="70" />
            </Array>
          </mxGeometry>
        </mxCell>
        <mxCell id="L2VYYUvSV4OqeW0CB1kr-62" value="" style="endArrow=classic;html=1;rounded=0;entryX=0;entryY=0.5;entryDx=0;entryDy=0;exitX=1;exitY=0.5;exitDx=0;exitDy=0;" parent="L2VYYUvSV4OqeW0CB1kr-66" source="L2VYYUvSV4OqeW0CB1kr-43" target="L2VYYUvSV4OqeW0CB1kr-51" edge="1">
          <mxGeometry width="50" height="50" relative="1" as="geometry">
            <mxPoint x="379.99" y="80" as="sourcePoint" />
            <mxPoint x="429.99" y="30" as="targetPoint" />
            <Array as="points">
              <mxPoint x="559.99" y="220" />
              <mxPoint x="559.99" y="69" />
            </Array>
          </mxGeometry>
        </mxCell>
        <mxCell id="L2VYYUvSV4OqeW0CB1kr-64" value="&lt;b&gt;&lt;font style=&quot;font-size: 14px;&quot;&gt;3D Feature Map&lt;/font&gt;&lt;/b&gt;" style="rounded=1;whiteSpace=wrap;html=1;fillColor=#f8cecc;strokeColor=#b85450;" parent="L2VYYUvSV4OqeW0CB1kr-66" vertex="1">
          <mxGeometry x="759.99" y="108.75" width="90" height="57.5" as="geometry" />
        </mxCell>
        <mxCell id="L2VYYUvSV4OqeW0CB1kr-65" value="" style="endArrow=classic;html=1;rounded=0;exitX=1;exitY=0.5;exitDx=0;exitDy=0;entryX=0;entryY=0.5;entryDx=0;entryDy=0;" parent="L2VYYUvSV4OqeW0CB1kr-66" source="L2VYYUvSV4OqeW0CB1kr-54" target="L2VYYUvSV4OqeW0CB1kr-64" edge="1">
          <mxGeometry width="50" height="50" relative="1" as="geometry">
            <mxPoint x="379.99" y="130" as="sourcePoint" />
            <mxPoint x="429.99" y="80" as="targetPoint" />
            <Array as="points">
              <mxPoint x="739.99" y="219" />
              <mxPoint x="739.99" y="138" />
            </Array>
          </mxGeometry>
        </mxCell>
        <mxCell id="L2VYYUvSV4OqeW0CB1kr-67" value="" style="group" parent="1" vertex="1" connectable="0">
          <mxGeometry x="960" y="-660" width="980" height="60" as="geometry" />
        </mxCell>
        <mxCell id="L2VYYUvSV4OqeW0CB1kr-68" value="&lt;b&gt;&lt;font style=&quot;font-size: 14px;&quot;&gt;CNN 3D Feature Map&lt;/font&gt;&lt;/b&gt;" style="rounded=1;whiteSpace=wrap;html=1;fillColor=#f8cecc;strokeColor=#b85450;" parent="L2VYYUvSV4OqeW0CB1kr-67" vertex="1">
          <mxGeometry width="100" height="60" as="geometry" />
        </mxCell>
        <mxCell id="L2VYYUvSV4OqeW0CB1kr-69" value="&lt;span style=&quot;font-size: 14px;&quot;&gt;&lt;b&gt;Patch Split&lt;/b&gt;&lt;/span&gt;&lt;div&gt;&lt;span style=&quot;font-size: 14px;&quot;&gt;&lt;b&gt;(8 x 8)&lt;/b&gt;&lt;/span&gt;&lt;/div&gt;" style="rounded=1;whiteSpace=wrap;html=1;fillColor=#e1d5e7;strokeColor=#9673a6;" parent="L2VYYUvSV4OqeW0CB1kr-67" vertex="1">
          <mxGeometry x="140" width="100" height="60" as="geometry" />
        </mxCell>
        <mxCell id="L2VYYUvSV4OqeW0CB1kr-70" value="&lt;span style=&quot;font-size: 14px;&quot;&gt;&lt;b&gt;2D Convolution&lt;/b&gt;&lt;/span&gt;" style="rounded=1;whiteSpace=wrap;html=1;fillColor=#dae8fc;strokeColor=#6c8ebf;" parent="L2VYYUvSV4OqeW0CB1kr-67" vertex="1">
          <mxGeometry x="280" width="100" height="60" as="geometry" />
        </mxCell>
        <mxCell id="L2VYYUvSV4OqeW0CB1kr-71" value="&lt;span style=&quot;font-size: 14px;&quot;&gt;&lt;b&gt;256D&amp;nbsp;&lt;/b&gt;&lt;/span&gt;&lt;div&gt;&lt;span style=&quot;font-size: 14px;&quot;&gt;&lt;b&gt;Embedding Vector&lt;/b&gt;&lt;/span&gt;&lt;/div&gt;" style="rounded=1;whiteSpace=wrap;html=1;fillColor=#d5e8d4;strokeColor=#82b366;" parent="L2VYYUvSV4OqeW0CB1kr-67" vertex="1">
          <mxGeometry x="420" width="140" height="60" as="geometry" />
        </mxCell>
        <mxCell id="L2VYYUvSV4OqeW0CB1kr-72" value="&lt;span style=&quot;font-size: 14px;&quot;&gt;&lt;b&gt;Flatten &amp;amp; Reshape&lt;/b&gt;&lt;/span&gt;" style="rounded=1;whiteSpace=wrap;html=1;fillColor=#fff2cc;strokeColor=#d6b656;" parent="L2VYYUvSV4OqeW0CB1kr-67" vertex="1">
          <mxGeometry x="600" width="100" height="60" as="geometry" />
        </mxCell>
        <mxCell id="L2VYYUvSV4OqeW0CB1kr-73" value="&lt;span style=&quot;font-size: 14px;&quot;&gt;&lt;b&gt;Positional Encoding&lt;/b&gt;&lt;/span&gt;" style="rounded=1;whiteSpace=wrap;html=1;fillColor=#FFD19A;strokeColor=#d79b00;" parent="L2VYYUvSV4OqeW0CB1kr-67" vertex="1">
          <mxGeometry x="740" width="100" height="60" as="geometry" />
        </mxCell>
        <mxCell id="L2VYYUvSV4OqeW0CB1kr-74" value="&lt;span style=&quot;font-size: 14px;&quot;&gt;&lt;b&gt;Token Sequence&lt;/b&gt;&lt;/span&gt;" style="rounded=1;whiteSpace=wrap;html=1;fillColor=light-dark(#f29c9c, #9d4545);strokeColor=#b85450;" parent="L2VYYUvSV4OqeW0CB1kr-67" vertex="1">
          <mxGeometry x="880" width="100" height="60" as="geometry" />
        </mxCell>
        <mxCell id="L2VYYUvSV4OqeW0CB1kr-75" value="" style="endArrow=classic;html=1;rounded=0;exitX=1;exitY=0.5;exitDx=0;exitDy=0;entryX=0;entryY=0.5;entryDx=0;entryDy=0;" parent="L2VYYUvSV4OqeW0CB1kr-67" source="L2VYYUvSV4OqeW0CB1kr-68" target="L2VYYUvSV4OqeW0CB1kr-69" edge="1">
          <mxGeometry width="50" height="50" relative="1" as="geometry">
            <mxPoint x="480" y="-60" as="sourcePoint" />
            <mxPoint x="530" y="-110" as="targetPoint" />
          </mxGeometry>
        </mxCell>
        <mxCell id="L2VYYUvSV4OqeW0CB1kr-76" value="" style="endArrow=classic;html=1;rounded=0;exitX=1;exitY=0.5;exitDx=0;exitDy=0;entryX=0;entryY=0.5;entryDx=0;entryDy=0;" parent="L2VYYUvSV4OqeW0CB1kr-67" source="L2VYYUvSV4OqeW0CB1kr-69" target="L2VYYUvSV4OqeW0CB1kr-70" edge="1">
          <mxGeometry width="50" height="50" relative="1" as="geometry">
            <mxPoint x="480" y="-60" as="sourcePoint" />
            <mxPoint x="530" y="-110" as="targetPoint" />
          </mxGeometry>
        </mxCell>
        <mxCell id="L2VYYUvSV4OqeW0CB1kr-77" value="" style="endArrow=classic;html=1;rounded=0;exitX=1;exitY=0.5;exitDx=0;exitDy=0;entryX=0;entryY=0.5;entryDx=0;entryDy=0;" parent="L2VYYUvSV4OqeW0CB1kr-67" source="L2VYYUvSV4OqeW0CB1kr-70" target="L2VYYUvSV4OqeW0CB1kr-71" edge="1">
          <mxGeometry width="50" height="50" relative="1" as="geometry">
            <mxPoint x="480" y="-60" as="sourcePoint" />
            <mxPoint x="530" y="-110" as="targetPoint" />
          </mxGeometry>
        </mxCell>
        <mxCell id="L2VYYUvSV4OqeW0CB1kr-78" value="" style="endArrow=classic;html=1;rounded=0;exitX=1;exitY=0.5;exitDx=0;exitDy=0;entryX=0;entryY=0.5;entryDx=0;entryDy=0;" parent="L2VYYUvSV4OqeW0CB1kr-67" source="L2VYYUvSV4OqeW0CB1kr-71" target="L2VYYUvSV4OqeW0CB1kr-72" edge="1">
          <mxGeometry width="50" height="50" relative="1" as="geometry">
            <mxPoint x="480" y="-60" as="sourcePoint" />
            <mxPoint x="530" y="-110" as="targetPoint" />
          </mxGeometry>
        </mxCell>
        <mxCell id="L2VYYUvSV4OqeW0CB1kr-79" value="" style="endArrow=classic;html=1;rounded=0;exitX=1;exitY=0.5;exitDx=0;exitDy=0;entryX=0;entryY=0.5;entryDx=0;entryDy=0;" parent="L2VYYUvSV4OqeW0CB1kr-67" source="L2VYYUvSV4OqeW0CB1kr-72" target="L2VYYUvSV4OqeW0CB1kr-73" edge="1">
          <mxGeometry width="50" height="50" relative="1" as="geometry">
            <mxPoint x="480" y="-60" as="sourcePoint" />
            <mxPoint x="530" y="-110" as="targetPoint" />
          </mxGeometry>
        </mxCell>
        <mxCell id="L2VYYUvSV4OqeW0CB1kr-80" value="" style="endArrow=classic;html=1;rounded=0;exitX=1;exitY=0.5;exitDx=0;exitDy=0;entryX=0;entryY=0.5;entryDx=0;entryDy=0;" parent="L2VYYUvSV4OqeW0CB1kr-67" source="L2VYYUvSV4OqeW0CB1kr-73" target="L2VYYUvSV4OqeW0CB1kr-74" edge="1">
          <mxGeometry width="50" height="50" relative="1" as="geometry">
            <mxPoint x="480" y="-60" as="sourcePoint" />
            <mxPoint x="530" y="-110" as="targetPoint" />
          </mxGeometry>
        </mxCell>
        <mxCell id="wr23IY5A6N__3UbD5s9D-1" value="" style="group" vertex="1" connectable="0" parent="1">
          <mxGeometry x="960" y="-530" width="1320" height="200" as="geometry" />
        </mxCell>
        <mxCell id="wr23IY5A6N__3UbD5s9D-2" value="&lt;span style=&quot;font-size: 14px;&quot;&gt;&lt;b&gt;Token&amp;nbsp;&lt;/b&gt;&lt;/span&gt;&lt;div&gt;&lt;span style=&quot;font-size: 14px;&quot;&gt;&lt;b&gt;Sequence + [CLS]&lt;/b&gt;&lt;/span&gt;&lt;/div&gt;" style="rounded=1;whiteSpace=wrap;html=1;fillColor=light-dark(#f29c9c, #9d4545);strokeColor=#b85450;" vertex="1" parent="wr23IY5A6N__3UbD5s9D-1">
          <mxGeometry y="70" width="150" height="60" as="geometry" />
        </mxCell>
        <mxCell id="wr23IY5A6N__3UbD5s9D-3" value="" style="group" vertex="1" connectable="0" parent="wr23IY5A6N__3UbD5s9D-1">
          <mxGeometry x="180" width="160" height="200" as="geometry" />
        </mxCell>
        <mxCell id="wr23IY5A6N__3UbD5s9D-4" value="" style="rounded=1;whiteSpace=wrap;html=1;fontStyle=1;fillColor=#FFD19A;strokeColor=#9673a6;arcSize=6;" vertex="1" parent="wr23IY5A6N__3UbD5s9D-3">
          <mxGeometry x="5.0003125195324705" width="150.0093755859741" height="200" as="geometry" />
        </mxCell>
        <mxCell id="wr23IY5A6N__3UbD5s9D-5" value="&lt;span style=&quot;font-size: 13px;&quot;&gt;&lt;i&gt;Transformer Encoder Layer 1&lt;/i&gt;&lt;/span&gt;" style="text;html=1;align=center;verticalAlign=middle;whiteSpace=wrap;rounded=0;fontStyle=1" vertex="1" parent="wr23IY5A6N__3UbD5s9D-3">
          <mxGeometry y="13.016528925619834" width="160" height="17.355371900826448" as="geometry" />
        </mxCell>
        <mxCell id="wr23IY5A6N__3UbD5s9D-6" value="&lt;font style=&quot;font-size: 11px;&quot;&gt;Multi-head self-attention&lt;/font&gt;" style="rounded=1;whiteSpace=wrap;html=1;fontStyle=1;" vertex="1" parent="wr23IY5A6N__3UbD5s9D-3">
          <mxGeometry x="18.561160072504475" y="47.72727272727273" width="121.43758984936558" height="30.371900826446282" as="geometry" />
        </mxCell>
        <mxCell id="wr23IY5A6N__3UbD5s9D-7" value="&lt;font style=&quot;font-size: 11px;&quot;&gt;Feed-forward&amp;nbsp;&lt;/font&gt;&lt;div&gt;&lt;font style=&quot;font-size: 11px;&quot;&gt;network&lt;/font&gt;&lt;/div&gt;" style="rounded=1;whiteSpace=wrap;html=1;fontStyle=1;" vertex="1" parent="wr23IY5A6N__3UbD5s9D-3">
          <mxGeometry x="19.29120570035627" y="100" width="121.43758984936558" height="30.58181818181818" as="geometry" />
        </mxCell>
        <mxCell id="wr23IY5A6N__3UbD5s9D-8" value="" style="endArrow=classic;html=1;rounded=0;exitX=0.5;exitY=1;exitDx=0;exitDy=0;entryX=0.5;entryY=0;entryDx=0;entryDy=0;" edge="1" parent="wr23IY5A6N__3UbD5s9D-3" source="wr23IY5A6N__3UbD5s9D-6" target="wr23IY5A6N__3UbD5s9D-7">
          <mxGeometry width="50" height="50" relative="1" as="geometry">
            <mxPoint x="9.990624414025886" y="169.21487603305786" as="sourcePoint" />
            <mxPoint x="59.99374960935059" y="125.82644628099173" as="targetPoint" />
          </mxGeometry>
        </mxCell>
        <mxCell id="wr23IY5A6N__3UbD5s9D-9" value="&lt;font style=&quot;font-size: 11px;&quot;&gt;Dropout &amp;amp;&amp;nbsp;&lt;/font&gt;&lt;div&gt;&lt;font style=&quot;font-size: 11px;&quot;&gt;LayerNorm&lt;/font&gt;&lt;/div&gt;" style="rounded=1;whiteSpace=wrap;html=1;fontStyle=1;" vertex="1" parent="wr23IY5A6N__3UbD5s9D-3">
          <mxGeometry x="20.001250078129882" y="151.44545454545454" width="120.00750046877928" height="30.37272727272727" as="geometry" />
        </mxCell>
        <mxCell id="wr23IY5A6N__3UbD5s9D-10" value="" style="endArrow=classic;html=1;rounded=0;exitX=0.5;exitY=1;exitDx=0;exitDy=0;entryX=0.5;entryY=0;entryDx=0;entryDy=0;" edge="1" parent="wr23IY5A6N__3UbD5s9D-3" source="wr23IY5A6N__3UbD5s9D-7" target="wr23IY5A6N__3UbD5s9D-9">
          <mxGeometry width="50" height="50" relative="1" as="geometry">
            <mxPoint x="89.00556284767798" y="86.77685950413223" as="sourcePoint" />
            <mxPoint x="89.00556284767798" y="104.13223140495867" as="targetPoint" />
          </mxGeometry>
        </mxCell>
        <mxCell id="wr23IY5A6N__3UbD5s9D-11" value="" style="group" vertex="1" connectable="0" parent="wr23IY5A6N__3UbD5s9D-1">
          <mxGeometry x="360" width="160" height="200" as="geometry" />
        </mxCell>
        <mxCell id="wr23IY5A6N__3UbD5s9D-12" value="" style="rounded=1;whiteSpace=wrap;html=1;fontStyle=1;fillColor=#fff2cc;strokeColor=#d6b656;arcSize=6;" vertex="1" parent="wr23IY5A6N__3UbD5s9D-11">
          <mxGeometry x="5.0003125195324705" width="150.0093755859741" height="200" as="geometry" />
        </mxCell>
        <mxCell id="wr23IY5A6N__3UbD5s9D-13" value="&lt;span style=&quot;font-size: 13px;&quot;&gt;&lt;i&gt;Transformer Encoder Layer 2&lt;/i&gt;&lt;/span&gt;" style="text;html=1;align=center;verticalAlign=middle;whiteSpace=wrap;rounded=0;fontStyle=1" vertex="1" parent="wr23IY5A6N__3UbD5s9D-11">
          <mxGeometry y="13.016528925619834" width="160" height="17.355371900826448" as="geometry" />
        </mxCell>
        <mxCell id="wr23IY5A6N__3UbD5s9D-14" value="&lt;font style=&quot;font-size: 11px;&quot;&gt;Multi-head self-attention&lt;/font&gt;" style="rounded=1;whiteSpace=wrap;html=1;fontStyle=1;" vertex="1" parent="wr23IY5A6N__3UbD5s9D-11">
          <mxGeometry x="18.561160072504475" y="47.72727272727273" width="121.43758984936558" height="30.371900826446282" as="geometry" />
        </mxCell>
        <mxCell id="wr23IY5A6N__3UbD5s9D-15" value="&lt;font style=&quot;font-size: 11px;&quot;&gt;Feed-forward&amp;nbsp;&lt;/font&gt;&lt;div&gt;&lt;font style=&quot;font-size: 11px;&quot;&gt;network&lt;/font&gt;&lt;/div&gt;" style="rounded=1;whiteSpace=wrap;html=1;fontStyle=1;" vertex="1" parent="wr23IY5A6N__3UbD5s9D-11">
          <mxGeometry x="19.29120570035627" y="100" width="121.43758984936558" height="30.58181818181818" as="geometry" />
        </mxCell>
        <mxCell id="wr23IY5A6N__3UbD5s9D-16" value="" style="endArrow=classic;html=1;rounded=0;exitX=0.5;exitY=1;exitDx=0;exitDy=0;entryX=0.5;entryY=0;entryDx=0;entryDy=0;" edge="1" parent="wr23IY5A6N__3UbD5s9D-11" source="wr23IY5A6N__3UbD5s9D-14" target="wr23IY5A6N__3UbD5s9D-15">
          <mxGeometry width="50" height="50" relative="1" as="geometry">
            <mxPoint x="9.990624414025886" y="169.21487603305786" as="sourcePoint" />
            <mxPoint x="59.99374960935059" y="125.82644628099173" as="targetPoint" />
          </mxGeometry>
        </mxCell>
        <mxCell id="wr23IY5A6N__3UbD5s9D-17" value="&lt;font style=&quot;font-size: 11px;&quot;&gt;Dropout &amp;amp;&amp;nbsp;&lt;/font&gt;&lt;div&gt;&lt;font style=&quot;font-size: 11px;&quot;&gt;LayerNorm&lt;/font&gt;&lt;/div&gt;" style="rounded=1;whiteSpace=wrap;html=1;fontStyle=1;" vertex="1" parent="wr23IY5A6N__3UbD5s9D-11">
          <mxGeometry x="20.001250078129882" y="151.44545454545454" width="120.00750046877928" height="30.37272727272727" as="geometry" />
        </mxCell>
        <mxCell id="wr23IY5A6N__3UbD5s9D-18" value="" style="endArrow=classic;html=1;rounded=0;exitX=0.5;exitY=1;exitDx=0;exitDy=0;entryX=0.5;entryY=0;entryDx=0;entryDy=0;" edge="1" parent="wr23IY5A6N__3UbD5s9D-11" source="wr23IY5A6N__3UbD5s9D-15" target="wr23IY5A6N__3UbD5s9D-17">
          <mxGeometry width="50" height="50" relative="1" as="geometry">
            <mxPoint x="89.00556284767798" y="86.77685950413223" as="sourcePoint" />
            <mxPoint x="89.00556284767798" y="104.13223140495867" as="targetPoint" />
          </mxGeometry>
        </mxCell>
        <mxCell id="wr23IY5A6N__3UbD5s9D-19" value="" style="endArrow=classic;html=1;rounded=0;exitX=1;exitY=0.5;exitDx=0;exitDy=0;entryX=0;entryY=0.5;entryDx=0;entryDy=0;" edge="1" parent="wr23IY5A6N__3UbD5s9D-1" source="wr23IY5A6N__3UbD5s9D-2" target="wr23IY5A6N__3UbD5s9D-4">
          <mxGeometry width="50" height="50" relative="1" as="geometry">
            <mxPoint x="430" y="140" as="sourcePoint" />
            <mxPoint x="480" y="90" as="targetPoint" />
          </mxGeometry>
        </mxCell>
        <mxCell id="wr23IY5A6N__3UbD5s9D-20" value="" style="endArrow=classic;html=1;rounded=0;exitX=1;exitY=0.5;exitDx=0;exitDy=0;entryX=0;entryY=0.5;entryDx=0;entryDy=0;" edge="1" parent="wr23IY5A6N__3UbD5s9D-1" source="wr23IY5A6N__3UbD5s9D-9" target="wr23IY5A6N__3UbD5s9D-14">
          <mxGeometry width="50" height="50" relative="1" as="geometry">
            <mxPoint x="430" y="140" as="sourcePoint" />
            <mxPoint x="480" y="90" as="targetPoint" />
            <Array as="points">
              <mxPoint x="350" y="167" />
              <mxPoint x="350" y="63" />
            </Array>
          </mxGeometry>
        </mxCell>
        <mxCell id="wr23IY5A6N__3UbD5s9D-21" value="" style="endArrow=classic;html=1;rounded=0;exitX=1;exitY=0.5;exitDx=0;exitDy=0;" edge="1" parent="wr23IY5A6N__3UbD5s9D-1" source="wr23IY5A6N__3UbD5s9D-17">
          <mxGeometry width="50" height="50" relative="1" as="geometry">
            <mxPoint x="430" y="140" as="sourcePoint" />
            <mxPoint x="550" y="63" as="targetPoint" />
            <Array as="points">
              <mxPoint x="530" y="167" />
              <mxPoint x="530" y="63" />
            </Array>
          </mxGeometry>
        </mxCell>
        <mxCell id="wr23IY5A6N__3UbD5s9D-22" value="" style="endArrow=none;dashed=1;html=1;dashPattern=1 3;strokeWidth=4;rounded=0;" edge="1" parent="wr23IY5A6N__3UbD5s9D-1">
          <mxGeometry width="50" height="50" relative="1" as="geometry">
            <mxPoint x="540" y="99.66000000000003" as="sourcePoint" />
            <mxPoint x="580" y="99.66000000000003" as="targetPoint" />
          </mxGeometry>
        </mxCell>
        <mxCell id="wr23IY5A6N__3UbD5s9D-23" value="" style="group" vertex="1" connectable="0" parent="wr23IY5A6N__3UbD5s9D-1">
          <mxGeometry x="570" width="190" height="200" as="geometry" />
        </mxCell>
        <mxCell id="wr23IY5A6N__3UbD5s9D-24" value="" style="group" vertex="1" connectable="0" parent="wr23IY5A6N__3UbD5s9D-23">
          <mxGeometry x="30" width="160" height="200" as="geometry" />
        </mxCell>
        <mxCell id="wr23IY5A6N__3UbD5s9D-25" value="" style="rounded=1;whiteSpace=wrap;html=1;fontStyle=1;fillColor=#d5e8d4;strokeColor=#82b366;arcSize=6;" vertex="1" parent="wr23IY5A6N__3UbD5s9D-24">
          <mxGeometry x="5.0003125195324705" width="150.0093755859741" height="200" as="geometry" />
        </mxCell>
        <mxCell id="wr23IY5A6N__3UbD5s9D-26" value="&lt;span style=&quot;font-size: 13px;&quot;&gt;&lt;i&gt;Transformer Encoder Layer 6&lt;/i&gt;&lt;/span&gt;" style="text;html=1;align=center;verticalAlign=middle;whiteSpace=wrap;rounded=0;fontStyle=1" vertex="1" parent="wr23IY5A6N__3UbD5s9D-24">
          <mxGeometry y="13.016528925619834" width="160" height="17.355371900826448" as="geometry" />
        </mxCell>
        <mxCell id="wr23IY5A6N__3UbD5s9D-27" value="&lt;font style=&quot;font-size: 11px;&quot;&gt;Multi-head self-attention&lt;/font&gt;" style="rounded=1;whiteSpace=wrap;html=1;fontStyle=1;" vertex="1" parent="wr23IY5A6N__3UbD5s9D-24">
          <mxGeometry x="18.561160072504475" y="47.72727272727273" width="121.43758984936558" height="30.371900826446282" as="geometry" />
        </mxCell>
        <mxCell id="wr23IY5A6N__3UbD5s9D-28" value="&lt;font style=&quot;font-size: 11px;&quot;&gt;Feed-forward&amp;nbsp;&lt;/font&gt;&lt;div&gt;&lt;font style=&quot;font-size: 11px;&quot;&gt;network&lt;/font&gt;&lt;/div&gt;" style="rounded=1;whiteSpace=wrap;html=1;fontStyle=1;" vertex="1" parent="wr23IY5A6N__3UbD5s9D-24">
          <mxGeometry x="19.29120570035627" y="100" width="121.43758984936558" height="30.58181818181818" as="geometry" />
        </mxCell>
        <mxCell id="wr23IY5A6N__3UbD5s9D-29" value="" style="endArrow=classic;html=1;rounded=0;exitX=0.5;exitY=1;exitDx=0;exitDy=0;entryX=0.5;entryY=0;entryDx=0;entryDy=0;" edge="1" parent="wr23IY5A6N__3UbD5s9D-24" source="wr23IY5A6N__3UbD5s9D-27" target="wr23IY5A6N__3UbD5s9D-28">
          <mxGeometry width="50" height="50" relative="1" as="geometry">
            <mxPoint x="9.990624414025886" y="169.21487603305786" as="sourcePoint" />
            <mxPoint x="59.99374960935059" y="125.82644628099173" as="targetPoint" />
          </mxGeometry>
        </mxCell>
        <mxCell id="wr23IY5A6N__3UbD5s9D-30" value="&lt;font style=&quot;font-size: 11px;&quot;&gt;Dropout &amp;amp;&amp;nbsp;&lt;/font&gt;&lt;div&gt;&lt;font style=&quot;font-size: 11px;&quot;&gt;LayerNorm&lt;/font&gt;&lt;/div&gt;" style="rounded=1;whiteSpace=wrap;html=1;fontStyle=1;" vertex="1" parent="wr23IY5A6N__3UbD5s9D-24">
          <mxGeometry x="20.001250078129882" y="151.44545454545454" width="120.00750046877928" height="30.37272727272727" as="geometry" />
        </mxCell>
        <mxCell id="wr23IY5A6N__3UbD5s9D-31" value="" style="endArrow=classic;html=1;rounded=0;exitX=0.5;exitY=1;exitDx=0;exitDy=0;entryX=0.5;entryY=0;entryDx=0;entryDy=0;" edge="1" parent="wr23IY5A6N__3UbD5s9D-24" source="wr23IY5A6N__3UbD5s9D-28" target="wr23IY5A6N__3UbD5s9D-30">
          <mxGeometry width="50" height="50" relative="1" as="geometry">
            <mxPoint x="89.00556284767798" y="86.77685950413223" as="sourcePoint" />
            <mxPoint x="89.00556284767798" y="104.13223140495867" as="targetPoint" />
          </mxGeometry>
        </mxCell>
        <mxCell id="wr23IY5A6N__3UbD5s9D-32" value="" style="endArrow=classic;html=1;rounded=0;entryX=0;entryY=0.5;entryDx=0;entryDy=0;" edge="1" parent="wr23IY5A6N__3UbD5s9D-23" target="wr23IY5A6N__3UbD5s9D-27">
          <mxGeometry width="50" height="50" relative="1" as="geometry">
            <mxPoint y="167" as="sourcePoint" />
            <mxPoint x="-90" y="90" as="targetPoint" />
            <Array as="points">
              <mxPoint x="20" y="167" />
              <mxPoint x="20" y="63" />
            </Array>
          </mxGeometry>
        </mxCell>
        <mxCell id="wr23IY5A6N__3UbD5s9D-33" value="&lt;span style=&quot;font-size: 14px;&quot;&gt;&lt;b&gt;[CLS] Output&lt;/b&gt;&lt;/span&gt;" style="rounded=1;whiteSpace=wrap;html=1;fillColor=#b0e3e6;strokeColor=#0e8088;" vertex="1" parent="wr23IY5A6N__3UbD5s9D-1">
          <mxGeometry x="790" y="70" width="110" height="60" as="geometry" />
        </mxCell>
        <mxCell id="wr23IY5A6N__3UbD5s9D-34" value="&lt;span style=&quot;font-size: 14px;&quot;&gt;&lt;b&gt;Fully Connected&amp;nbsp;&lt;/b&gt;&lt;/span&gt;&lt;div&gt;&lt;span style=&quot;font-size: 14px;&quot;&gt;&lt;b&gt;(9 neurons)&lt;/b&gt;&lt;/span&gt;&lt;/div&gt;" style="rounded=1;whiteSpace=wrap;html=1;fillColor=#b1ddf0;strokeColor=#10739e;" vertex="1" parent="wr23IY5A6N__3UbD5s9D-1">
          <mxGeometry x="930" y="70" width="110" height="60" as="geometry" />
        </mxCell>
        <mxCell id="wr23IY5A6N__3UbD5s9D-35" value="&lt;span style=&quot;font-size: 14px;&quot;&gt;&lt;b&gt;Softmax&lt;/b&gt;&lt;/span&gt;" style="rounded=1;whiteSpace=wrap;html=1;fillColor=#d0cee2;strokeColor=#56517e;" vertex="1" parent="wr23IY5A6N__3UbD5s9D-1">
          <mxGeometry x="1070" y="70" width="110" height="60" as="geometry" />
        </mxCell>
        <mxCell id="wr23IY5A6N__3UbD5s9D-36" value="&lt;span style=&quot;font-size: 14px;&quot;&gt;&lt;b&gt;Predicted Output Class&lt;/b&gt;&lt;/span&gt;" style="rounded=1;whiteSpace=wrap;html=1;fillColor=#fad9d5;strokeColor=#ae4132;" vertex="1" parent="wr23IY5A6N__3UbD5s9D-1">
          <mxGeometry x="1210" y="70" width="110" height="60" as="geometry" />
        </mxCell>
        <mxCell id="wr23IY5A6N__3UbD5s9D-37" value="" style="endArrow=classic;html=1;rounded=0;exitX=1;exitY=0.5;exitDx=0;exitDy=0;entryX=0;entryY=0.5;entryDx=0;entryDy=0;" edge="1" parent="wr23IY5A6N__3UbD5s9D-1" source="wr23IY5A6N__3UbD5s9D-25" target="wr23IY5A6N__3UbD5s9D-33">
          <mxGeometry width="50" height="50" relative="1" as="geometry">
            <mxPoint x="650" y="200" as="sourcePoint" />
            <mxPoint x="700" y="150" as="targetPoint" />
          </mxGeometry>
        </mxCell>
        <mxCell id="wr23IY5A6N__3UbD5s9D-38" value="" style="endArrow=classic;html=1;rounded=0;exitX=1;exitY=0.5;exitDx=0;exitDy=0;entryX=0;entryY=0.5;entryDx=0;entryDy=0;" edge="1" parent="wr23IY5A6N__3UbD5s9D-1" source="wr23IY5A6N__3UbD5s9D-33" target="wr23IY5A6N__3UbD5s9D-34">
          <mxGeometry width="50" height="50" relative="1" as="geometry">
            <mxPoint x="750" y="190" as="sourcePoint" />
            <mxPoint x="800" y="140" as="targetPoint" />
          </mxGeometry>
        </mxCell>
        <mxCell id="wr23IY5A6N__3UbD5s9D-39" value="" style="endArrow=classic;html=1;rounded=0;exitX=1;exitY=0.5;exitDx=0;exitDy=0;entryX=0;entryY=0.5;entryDx=0;entryDy=0;" edge="1" parent="wr23IY5A6N__3UbD5s9D-1" source="wr23IY5A6N__3UbD5s9D-34" target="wr23IY5A6N__3UbD5s9D-35">
          <mxGeometry width="50" height="50" relative="1" as="geometry">
            <mxPoint x="750" y="190" as="sourcePoint" />
            <mxPoint x="800" y="140" as="targetPoint" />
          </mxGeometry>
        </mxCell>
        <mxCell id="wr23IY5A6N__3UbD5s9D-40" value="" style="endArrow=classic;html=1;rounded=0;exitX=1;exitY=0.5;exitDx=0;exitDy=0;entryX=0;entryY=0.5;entryDx=0;entryDy=0;" edge="1" parent="wr23IY5A6N__3UbD5s9D-1" source="wr23IY5A6N__3UbD5s9D-35" target="wr23IY5A6N__3UbD5s9D-36">
          <mxGeometry width="50" height="50" relative="1" as="geometry">
            <mxPoint x="1050" y="110" as="sourcePoint" />
            <mxPoint x="1080" y="110" as="targetPoint" />
          </mxGeometry>
        </mxCell>
      </root>
    </mxGraphModel>
  </diagram>
</mxfile>
